<svg id="Layer_1" data-name="Layer 1" xmlns="http://www.w3.org/2000/svg" viewBox="0 0 200 200"><defs><style>.cls-1{fill:#fff;}.cls-2{fill:#1d1d1b;}</style></defs><line class="cls-1" x1="51.4" y1="19" x2="191" y2="19.2"/><path class="cls-2" d="M191,28.2h0L51.4,28a9,9,0,0,1,0-18h0l139.6.2a9,9,0,0,1,0,18Z"/><path class="cls-2" d="M9,28l-1.7-.2-1.7-.5A8,8,0,0,1,4,26.5L2.6,25.4,1.5,24a8,8,0,0,1-.8-1.6,9.8,9.8,0,0,1-.5-1.6A11,11,0,0,1,0,19a9.4,9.4,0,0,1,2.6-6.4L4,11.5l1.6-.8,1.7-.5a6.9,6.9,0,0,1,3.5,0l1.7.5,1.5.8,1.4,1.1A7.6,7.6,0,0,1,16.5,14a8,8,0,0,1,.8,1.6,9.8,9.8,0,0,1,.5,1.6A5.5,5.5,0,0,1,18,19a5.5,5.5,0,0,1-.2,1.8,9.8,9.8,0,0,1-.5,1.6,8,8,0,0,1-.8,1.6,13.4,13.4,0,0,1-1.1,1.4A9.4,9.4,0,0,1,9,28Z"/><line class="cls-1" x1="51.4" y1="180.8" x2="191" y2="181"/><path class="cls-2" d="M191,190h0l-139.6-.2a9,9,0,0,1,0-18h0L191,172a9,9,0,0,1,0,18Z"/><path class="cls-2" d="M9,189.8a9,9,0,0,1-6.4-2.6,7.6,7.6,0,0,1-1.1-1.4,10.9,10.9,0,0,1-.8-1.5,10.9,10.9,0,0,1-.5-1.7,11,11,0,0,1-.2-1.8,11.1,11.1,0,0,1,.2-1.7,8.4,8.4,0,0,1,.5-1.7l.8-1.6a6.9,6.9,0,0,1,1.1-1.3A9.1,9.1,0,0,1,9,171.8a9.1,9.1,0,0,1,6.4,2.7,6.9,6.9,0,0,1,1.1,1.3l.8,1.6a8.4,8.4,0,0,1,.5,1.7,11.1,11.1,0,0,1,.2,1.7,11,11,0,0,1-.2,1.8,10.9,10.9,0,0,1-.5,1.7,10.9,10.9,0,0,1-.8,1.5,7.6,7.6,0,0,1-1.1,1.4A9,9,0,0,1,9,189.8Z"/><line class="cls-1" x1="51.4" y1="99.9" x2="191" y2="100.1"/><path class="cls-2" d="M191,109.1h0l-139.6-.2a9,9,0,0,1,0-18h0l139.6.2a9,9,0,0,1,0,18Z"/><path class="cls-2" d="M9,108.9a9,9,0,0,1-6.4-2.6,7.6,7.6,0,0,1-1.1-1.4,10.9,10.9,0,0,1-.8-1.5,15.4,15.4,0,0,1-.5-1.7A11,11,0,0,1,0,99.9a8.8,8.8,0,0,1,.2-1.7,8.4,8.4,0,0,1,.5-1.7,8,8,0,0,1,.8-1.6,6.9,6.9,0,0,1,1.1-1.3,9.1,9.1,0,0,1,8.2-2.5l1.6.5,1.6.8,1.4,1.2a6.9,6.9,0,0,1,1.1,1.3,8,8,0,0,1,.8,1.6,8.4,8.4,0,0,1,.5,1.7,8.8,8.8,0,0,1,.2,1.7,11,11,0,0,1-.2,1.8,15.4,15.4,0,0,1-.5,1.7,10.9,10.9,0,0,1-.8,1.5,7.6,7.6,0,0,1-1.1,1.4L14,107.4l-1.6.8a10.4,10.4,0,0,1-1.6.6Z"/></svg>