<svg id="Layer_2" data-name="Layer 2" xmlns="http://www.w3.org/2000/svg" viewBox="0 0 200 200"><defs><style>.cls-1,.cls-2{fill:none;stroke:#000;stroke-miterlimit:10;stroke-width:10px;}.cls-2{stroke-linecap:round;}</style></defs><rect class="cls-1" x="5" y="51.8" width="189.9" height="131.84" rx="12"/><path class="cls-2" d="M70.5,116.3H19.9A14.9,14.9,0,0,1,5,101.4V81.7"/><path class="cls-2" d="M195,80.4v21a14.9,14.9,0,0,1-14.9,14.9H129.5"/><rect class="cls-2" x="86.7" y="94.2" width="26.7" height="44.24" rx="10.8"/><path class="cls-2" d="M132.6,35.9l-5.3-12.3a10.6,10.6,0,0,0-3-4.7,10.7,10.7,0,0,0-6.9-2.6H82.6a10.7,10.7,0,0,0-6.9,2.6,10.6,10.6,0,0,0-3,4.7L67.4,35.9"/></svg>