<svg id="Layer_2" data-name="Layer 2" xmlns="http://www.w3.org/2000/svg" viewBox="0 0 200 200"><defs><style>.cls-1,.cls-2,.cls-3{fill:none;stroke:#1d1d1b;stroke-width:10px;}.cls-1,.cls-2{stroke-miterlimit:10;}.cls-2,.cls-3{stroke-linecap:round;}.cls-3{stroke-linejoin:round;}</style></defs><path class="cls-1" d="M134.8,194.8H43.6a27.2,27.2,0,0,1-27.1-27.1V32.2A27.2,27.2,0,0,1,43.6,5.1h88a27.2,27.2,0,0,1,27.1,27.1v78.1"/><line class="cls-2" x1="49.9" y1="46.9" x2="125.3" y2="46.9"/><line class="cls-2" x1="49.9" y1="78.7" x2="125.3" y2="78.7"/><line class="cls-2" x1="49.9" y1="110.5" x2="82.4" y2="110.5"/><path class="cls-2" d="M183.5,150.3a44.7,44.7,0,1,1-17-35.1"/><path class="cls-3" d="M116.2,150.6l13.9,15a8.8,8.8,0,0,0,12.8.2l40.6-40.5"/></svg>