<svg id="Layer_1" data-name="Layer 1" xmlns="http://www.w3.org/2000/svg" viewBox="0 0 200 200"><defs><style>.cls-1{fill:none;stroke:#000;stroke-linecap:round;stroke-linejoin:round;stroke-width:10px;}</style></defs><g id="Interface_Settings" data-name="Interface / Settings"><g id="Vector"><path class="cls-1" d="M179.3,70.8l-3.4-2-1.1-.6a19,19,0,0,1-6.4-6.2,23.9,23.9,0,0,1-1.2-2.2,18.8,18.8,0,0,1-2.3-8.7V45.9c.1-6.5.2-9.8-.7-12.7a22.3,22.3,0,0,0-4-7c-2-2.2-4.9-3.9-10.5-7.1l-4.7-2.7c-5.6-3.3-8.5-4.9-11.4-5.5a18.5,18.5,0,0,0-8.1.1c-2.9.6-5.7,2.3-11.3,5.6h0l-3.4,2.1-1,.6a20.2,20.2,0,0,1-8.7,2.4H98.8a20.2,20.2,0,0,1-8.7-2.4l-1-.7-3.4-2c-5.6-3.4-8.4-5-11.4-5.7a19.6,19.6,0,0,0-8-.1c-3,.7-5.9,2.3-11.5,5.6h0l-4.7,2.7h0c-5.6,3.2-8.4,4.9-10.4,7.1a19.4,19.4,0,0,0-3.9,7c-1,2.9-.9,6.2-.8,12.7v5.2a18.8,18.8,0,0,1-2.3,8.7,14.3,14.3,0,0,1-1.2,2.1,18.4,18.4,0,0,1-6.4,6.3l-1.1.6-3.4,1.9c-5.7,3.2-8.6,4.8-10.6,7a17.8,17.8,0,0,0-4.1,7c-1,2.9-1,6.2-1,12.7v5.3c.1,6.5.1,9.8,1,12.7a21.1,21.1,0,0,0,4.1,6.9c2.1,2.2,4.9,3.8,10.6,6.9l3.4,1.9,1.1.7a18.4,18.4,0,0,1,6.4,6.3l1.3,2.2a19.9,19.9,0,0,1,2.2,8.6v5.2c-.1,6.5-.2,9.7.8,12.7a19.4,19.4,0,0,0,3.9,7c2.1,2.2,4.9,3.9,10.5,7.1l4.7,2.7c5.6,3.3,8.5,4.9,11.5,5.5a18,18,0,0,0,8-.1c2.9-.6,5.7-2.3,11.3-5.6l3.4-2,1-.7a20.2,20.2,0,0,1,8.7-2.4h2.4a20.2,20.2,0,0,1,8.7,2.4l.9.6,3.5,2.1c5.6,3.4,8.4,5,11.4,5.7a20.1,20.1,0,0,0,8.1.1c3-.7,5.8-2.3,11.4-5.6l4.7-2.7c5.6-3.2,8.4-4.9,10.4-7.1a19.6,19.6,0,0,0,4-7c.9-2.9.8-6.1.7-12.5v-5.4a18.8,18.8,0,0,1,2.3-8.7,14.3,14.3,0,0,1,1.2-2.1,18.4,18.4,0,0,1,6.4-6.3l1.1-.6h0l3.4-1.9c5.7-3.2,8.6-4.8,10.7-7a18.8,18.8,0,0,0,4-7c1-2.9,1-6.1,1-12.6V97.3c-.1-6.5-.1-9.8-1-12.7a21.1,21.1,0,0,0-4.1-6.9c-2.1-2.2-4.9-3.8-10.6-6.9Z"/><path class="cls-1" d="M62,100a38,38,0,1,0,38-38A38,38,0,0,0,62,100Z"/></g></g></svg>