<svg id="Layer_2" data-name="Layer 2" xmlns="http://www.w3.org/2000/svg" viewBox="0 0 200 200"><defs><style>.cls-1{fill:none;stroke:#1d1d1b;stroke-linecap:round;stroke-miterlimit:10;stroke-width:10px;}</style></defs><path class="cls-1" d="M165,90l-53,32.2a22.7,22.7,0,0,1-4.1,2.1,21.4,21.4,0,0,1-7,1.5H99.1a21.4,21.4,0,0,1-7-1.5,22.7,22.7,0,0,1-4.1-2.1L12,75.9A15.7,15.7,0,0,1,9.4,74C4,68.9,3.6,60.9,8.7,56.3a10.3,10.3,0,0,1,3.6-2.2L89.6,22.4a26.8,26.8,0,0,1,20.8,0l77.3,31.7a10.3,10.3,0,0,1,3.6,2.2c4.2,3.8,4.7,9.8,1.8,14.7"/><path class="cls-1" d="M35,90v55.2a26.9,26.9,0,0,0,13.2,23.4c11.7,6.9,30.3,11.1,51.8,11.1s40.1-4.2,51.8-11.1A26.9,26.9,0,0,0,165,145.2V90"/><path class="cls-1" d="M100,67.8l72.1,8.8a14.7,14.7,0,0,1,12.8,14.6V130"/><circle class="cls-1" cx="184.9" cy="139.9" r="10"/><path class="cls-1" d="M184.9,179.7h0a9.1,9.1,0,0,0,8.5-12.8L186.6,151a1.8,1.8,0,0,0-3.3,0l-6.8,15.9a9.1,9.1,0,0,0,8.4,12.8Z"/></svg>