<svg id="Layer_2" data-name="Layer 2" xmlns="http://www.w3.org/2000/svg" viewBox="0 0 200 200"><defs><style>.cls-1{fill:none;stroke:#1d1d1b;stroke-linecap:round;stroke-linejoin:round;stroke-width:10px;}</style></defs><path class="cls-1" d="M173.8,103.8c2,1.8,4.3,3.8,6.8,5.7s5,3.7,7.3,5.2"/><line class="cls-1" x1="179.1" y1="71.9" x2="195" y2="71.9"/><path class="cls-1" d="M173.8,40c2-1.9,4.3-3.8,6.8-5.8s5-3.7,7.3-5.2"/><path class="cls-1" d="M82.6,164.4a15.2,15.2,0,0,1-15.1-15.1v-5.1a51.4,51.4,0,0,0-1.3-11.8,42.8,42.8,0,0,0-3.7-10.3c-3.2-6.5-5.5-7.4-11.2-17.1-3-5.1-5.5-9.3-7.4-15.3a58.7,58.7,0,1,1,112.2,0c-1.9,6-4.4,10.2-7.4,15.3-5.7,9.7-8,10.6-11.2,17.1a42.8,42.8,0,0,0-3.7,10.3,51.4,51.4,0,0,0-1.3,11.8v5.1a15.2,15.2,0,0,1-15.1,15.1Z"/><path class="cls-1" d="M80.8,164.4v6.2a11.7,11.7,0,0,0,1.7,6.1,20.3,20.3,0,0,0,17.4,9.6h.2a20.3,20.3,0,0,0,17.4-9.6,11.7,11.7,0,0,0,1.7-6.1v-6.2"/><line class="cls-1" x1="67.5" y1="142.4" x2="132.5" y2="142.4"/><path class="cls-1" d="M26.2,103.8c-2,1.8-4.3,3.8-6.8,5.7s-5,3.7-7.3,5.2"/><line class="cls-1" x1="20.9" y1="71.9" x2="5" y2="71.9"/><path class="cls-1" d="M26.2,40c-2-1.9-4.3-3.8-6.8-5.8s-5-3.7-7.3-5.2"/><path class="cls-1" d="M104.1,32.7a41.7,41.7,0,0,1,35,32.6"/></svg>