<svg id="Layer_1" data-name="Layer 1" xmlns="http://www.w3.org/2000/svg" viewBox="0 0 200 200"><defs><style>.cls-1{fill:#fff;}.cls-2{fill:#1d1d1b;}</style></defs><line class="cls-1" x1="119.5" y1="19" x2="191" y2="19.2"/><path class="cls-2" d="M191,28.2h0L119.5,28a9,9,0,0,1,0-18h0l71.5.2a9,9,0,0,1,0,18Z"/><line class="cls-1" x1="119.5" y1="180.8" x2="191" y2="181"/><path class="cls-2" d="M191,190h0l-71.5-.2a9,9,0,0,1,0-18h0l71.5.2a9,9,0,0,1,0,18Z"/><line class="cls-1" x1="119.5" y1="99.9" x2="191" y2="100.1"/><path class="cls-2" d="M191,109.1h0l-71.5-.2a9,9,0,0,1,0-18h0l71.5.2a9,9,0,0,1,0,18Z"/><path d="M52.6,191.5a8.5,8.5,0,0,1-6-2.3,7.8,7.8,0,0,1-2.3-5.5V27.2l2.9,2.6L12.6,53.2a8,8,0,0,1-4.4,1.3,7.6,7.6,0,0,1-5.6-2.6A7.7,7.7,0,0,1,.1,46.4a7.3,7.3,0,0,1,4.2-6.7L47.7,11.1a10.4,10.4,0,0,1,3.2-1.5,7.8,7.8,0,0,1,3-.1A7,7,0,0,1,59.1,12a8.1,8.1,0,0,1,1.8,5.3V183.7a7.4,7.4,0,0,1-2.3,5.5A8.3,8.3,0,0,1,52.6,191.5Z"/></svg>