<svg id="Layer_2" data-name="Layer 2" xmlns="http://www.w3.org/2000/svg" viewBox="0 0 200 200"><defs><style>.cls-1{fill:none;stroke:#1d1d1b;stroke-linecap:round;stroke-miterlimit:10;stroke-width:16px;}</style></defs><circle class="cls-1" cx="99.7" cy="99.6" r="92.3"/><path class="cls-1" d="M129.8,14.1a768.2,768.2,0,0,1-22.3,88.4,767.2,767.2,0,0,1-31.6,82.9"/><path class="cls-1" d="M75.9,12.2c10.8,5,44.5,22.2,65.1,62,23.7,45.8,13.2,89.3,10.5,99.6"/><path class="cls-1" d="M20.3,55.9a238,238,0,0,0,82.4,45.2,237.3,237.3,0,0,0,87,10"/><path class="cls-1" d="M171.9,45.5A157.1,157.1,0,0,0,87.8,60.9C43.2,83,22.9,119.8,16.7,132.2"/><path class="cls-1" d="M9.1,108.7a214.7,214.7,0,0,0,77.2,43.7,214.1,214.1,0,0,0,78.7,9.5"/></svg>