<svg id="Layer_1" data-name="Layer 1" xmlns="http://www.w3.org/2000/svg" viewBox="0 0 200 200"><defs><style>.cls-1{fill:none;stroke:#1d1d1b;stroke-linecap:round;stroke-miterlimit:10;stroke-width:16px;}</style></defs><line class="cls-1" x1="57.1" y1="8" x2="57.1" y2="42.9"/><path class="cls-1" d="M168.3,26.5c13.7,3.8,23.9,17.1,23.9,32.9v98.5c0,18.7-14.4,34-32,34H39.9c-17.5,0-31.9-15.3-31.9-34V59.4C8,43.6,18.2,30.3,31.9,26.5"/><line class="cls-1" x1="118.8" y1="25.4" x2="81.4" y2="25.4"/><line class="cls-1" x1="143.1" y1="8" x2="143.1" y2="42.9"/><path class="cls-1" d="M100.2,100.3a20.8,20.8,0,0,1,0-41.5H100a20.8,20.8,0,0,1,0,41.5Z"/><path class="cls-1" d="M100.2,158.5H77.5a19.5,19.5,0,0,1-11-3.3,1.8,1.8,0,0,1-.7-.5,16.1,16.1,0,0,1-6.1-12,49.3,49.3,0,0,1,.3-9.4,39.8,39.8,0,0,1,3.3-11.8c1.5-3.6,3.4-7,6.5-9.5a13.5,13.5,0,0,1,9.2-3.4c4.1.1,6.6,2.4,10.4,3.8a34,34,0,0,0,10.5,1.8h.4a34,34,0,0,0,10.5-1.8c3.8-1.4,6.2-3.7,10.4-3.8a13.5,13.5,0,0,1,9.2,3.4c3.1,2.5,5,5.9,6.5,9.5a39.8,39.8,0,0,1,3.3,11.8,49.3,49.3,0,0,1,.3,9.4,16.1,16.1,0,0,1-6.1,12,1.8,1.8,0,0,1-.7.5,19.5,19.5,0,0,1-11,3.3H100.2Z"/></svg>